HIERARCHY
ROOT SpineBase
{
  OFFSET 0.000000 0.000000 0.000000
  CHANNELS 6 Xposition Yposition Zposition Zrotation Xrotation Yrotation
  JOINT SpineMid
  {
    OFFSET 0.000000 36.162810 0.000000
    CHANNELS 3 Zrotation Xrotation Yrotation
    JOINT SpineShoulder
    {
      OFFSET 0.268689 26.721532 -0.595642
      CHANNELS 3 Zrotation Xrotation Yrotation
      JOINT Neck
      {
        OFFSET 0.081158 8.798454 -0.560772
        CHANNELS 3 Zrotation Xrotation Yrotation
        JOINT Head
        {
          OFFSET -5.917503 10.145275 7.648318
          CHANNELS 3 Zrotation Xrotation Yrotation
          End Site
          {
            OFFSET 0 0 0
          }
        }
      }
      JOINT ShoulderLeft
      {
        OFFSET -12.885314 -2.966241 -16.489222
        CHANNELS 3 Zrotation Xrotation Yrotation
        JOINT ElbowLeft
        {
          OFFSET 15.984526 -15.852623 12.957738
          CHANNELS 3 Zrotation Xrotation Yrotation
          JOINT WristLeft
          {
            OFFSET 5.689034 -23.392249 10.809599
            CHANNELS 3 Zrotation Xrotation Yrotation
            JOINT HandLeft
            {
              OFFSET -0.243485 -6.961544 -4.763660
              CHANNELS 3 Zrotation Xrotation Yrotation
              JOINT HandTipLeft
              {
                OFFSET 0.209345 -0.365467 -1.613513
                CHANNELS 3 Zrotation Xrotation Yrotation
                End Site
                {
                  OFFSET 0 0 0
                }
              }
              JOINT ThumbLeft
              {
                OFFSET -0.090070 0.392425 -1.668358
                CHANNELS 3 Zrotation Xrotation Yrotation
                End Site
                {
                  OFFSET 0 0 0
                }
              }
            }
          }
        }
      }
      JOINT ShoulderRight
      {
        OFFSET -0.004020 -6.232058 -13.931710
        CHANNELS 3 Zrotation Xrotation Yrotation
        JOINT ElbowRight
        {
          OFFSET -4.172839 -26.197956 -8.414924
          CHANNELS 3 Zrotation Xrotation Yrotation
          JOINT WristRight
          {
            OFFSET -8.361870 -22.014060 -5.614725
            CHANNELS 3 Zrotation Xrotation Yrotation
            JOINT HandRight
            {
              OFFSET -1.214297 -7.812202 1.773860
              CHANNELS 3 Zrotation Xrotation Yrotation
              JOINT HandTipRight
              {
                OFFSET -3.271618 -6.240317 0.709164
                CHANNELS 3 Zrotation Xrotation Yrotation
                End Site
                {
                  OFFSET 0 0 0
                }
              }
              JOINT ThumbRight
              {
                OFFSET -2.846044 -1.726553 -5.321567
                CHANNELS 3 Zrotation Xrotation Yrotation
                End Site
                {
                  OFFSET 0 0 0
                }
              }
            }
          }
        }
      }
    }
  }
  JOINT HipLeft
  {
    OFFSET -6.659864 1.630928 0.918789
    CHANNELS 3 Zrotation Xrotation Yrotation
    JOINT KneeLeft
    {
      OFFSET 1.928053 -43.205723 5.191530
      CHANNELS 3 Zrotation Xrotation Yrotation
      JOINT AnkleLeft
      {
        OFFSET -3.168996 -32.407992 2.072889
        CHANNELS 3 Zrotation Xrotation Yrotation
        JOINT FootLeft
        {
          OFFSET -6.393944 -0.109267 -15.862259
          CHANNELS 3 Zrotation Xrotation Yrotation
          End Site
          {
            OFFSET 0 0 0
          }
        }
      }
    }
  }
  JOINT HipRight
  {
    OFFSET 5.675425 0.350930 -8.318029
    CHANNELS 3 Zrotation Xrotation Yrotation
    JOINT KneeRight
    {
      OFFSET -26.889455 -32.278776 -2.860795
      CHANNELS 3 Zrotation Xrotation Yrotation
      JOINT AnkleRight
      {
        OFFSET 4.341803 -38.860976 -2.647729
        CHANNELS 3 Zrotation Xrotation Yrotation
        JOINT FootRight
        {
          OFFSET -5.901948 -8.040743 0.549112
          CHANNELS 3 Zrotation Xrotation Yrotation
          End Site
          {
            OFFSET 0 0 0
          }
        }
      }
    }
  }
}
MOTION
Frames: 12
Frame Time: 0.033333
25.952953 78.829566 289.101786 -0.000000 0.000000 36.826327 -0.000000 -0.000000 -36.826327 -0.000000 0.000000 0.000000 -0.000000 0.000000 0.000000 0.000000 0.000000 0.000000 -0.000000 0.000000 0.000000 -0.000000 0.000000 0.000000 -0.000000 0.000000 0.000000 -0.000000 0.000000 0.000000 0.000000 0.000000 0.000000 0.000000 0.000000 0.000000 -0.000000 0.000000 0.000000 -0.000000 0.000000 0.000000 -0.000000 0.000000 0.000000 -0.000000 0.000000 0.000000 0.000000 0.000000 0.000000 0.000000 0.000000 0.000000 -0.000000 -0.000000 -36.826327 -0.000000 0.000000 0.000000 -0.000000 0.000000 0.000000 0.000000 0.000000 0.000000 -0.000000 -0.000000 -36.826327 -0.000000 0.000000 0.000000 -0.000000 0.000000 0.000000 0.000000 0.000000 0.000000
25.632902 78.650815 289.127160 -0.556263 0.309707 36.998096 0.257902 -0.582094 -36.995283 -0.000000 0.000000 0.000000 -0.000000 0.000000 0.000000 0.000000 0.000000 0.000000 0.919610 -1.020384 -0.264946 -0.924463 1.015989 0.281332 -0.918355 8.535199 0.378448 -1.271837 -20.893761 2.329254 0.000000 0.000000 0.000000 0.000000 0.000000 0.000000 -0.000000 0.000000 0.000000 -0.000000 0.000000 0.000000 -0.091870 2.166276 -0.357369 3.087371 -2.002899 0.738125 0.000000 0.000000 0.000000 0.000000 0.000000 0.000000 0.257902 -0.582094 -36.995283 -0.000000 0.000000 0.000000 -0.000000 0.000000 0.000000 0.000000 0.000000 0.000000 1.130491 -0.867007 -37.310949 -0.866639 -0.302339 0.324414 6.514261 17.714489 -14.358917 0.000000 0.000000 0.000000
25.325557 78.560609 288.930207 -1.051209 0.678376 37.237553 0.426528 -1.176130 -37.226951 -0.000000 0.000000 0.000000 -0.000000 0.000000 0.000000 0.000000 0.000000 0.000000 1.449492 -1.662954 -0.459692 -0.732191 0.605858 0.564980 -2.375201 16.366846 0.712864 -2.457848 -38.187849 3.163267 0.000000 0.000000 0.000000 0.000000 0.000000 0.000000 1.153780 -0.609894 -0.268214 0.090072 0.574358 -0.037937 -1.842322 3.978654 -0.423455 5.786648 -3.735542 1.651000 0.000000 0.000000 0.000000 0.000000 0.000000 0.000000 1.616599 -1.212994 -37.054748 -0.352172 -1.697921 -0.001920 -0.723455 1.297610 -1.285250 0.000000 0.000000 0.000000 2.094244 -1.978013 -37.655558 -3.100145 -0.299379 0.559400 19.499647 32.416240 -32.391547 0.000000 0.000000 0.000000
25.030920 78.558950 288.510929 -1.486794 1.106684 37.544574 0.504847 -1.783324 -37.522356 -0.000000 0.000000 0.000000 -0.000000 0.000000 0.000000 0.000000 0.000000 0.000000 1.594080 -1.926618 -0.596393 -0.760186 0.672574 0.715716 -2.984446 21.184247 0.994751 -3.826889 -50.573839 2.576427 0.000000 0.000000 0.000000 0.000000 0.000000 0.000000 1.465228 -0.668244 -0.357075 -0.087585 0.591709 0.033989 -2.865878 5.411906 -0.775221 8.099220 -5.201652 2.638297 0.000000 0.000000 0.000000 0.000000 0.000000 0.000000 2.140245 -1.915576 -37.264261 -0.488179 -2.569098 0.032711 -0.848312 1.596349 -1.613402 0.000000 0.000000 0.000000 2.886155 -3.336777 -37.854760 -4.850866 -0.202851 0.568491 33.159726 40.461703 -49.600463 0.000000 0.000000 0.000000
24.748990 78.645836 287.869324 -1.864621 1.595665 37.917138 0.309081 -1.291647 -37.912879 -0.097409 -0.139362 -0.040357 0.243880 -0.716791 0.524849 0.000000 0.000000 0.000000 2.283488 -2.434712 -0.594763 -0.564651 0.582942 0.776719 -3.117459 23.524137 1.095735 -5.338343 -57.853945 0.821752 0.000000 0.000000 0.000000 0.000000 0.000000 0.000000 2.526378 -1.185073 -0.331139 -0.418185 0.428828 0.169572 -3.946888 6.474403 -1.208815 10.029558 -6.416627 3.620047 0.000000 0.000000 0.000000 0.000000 0.000000 0.000000 2.461094 -2.685006 -37.541870 -0.583600 -3.459718 0.094275 -0.821318 1.666021 -1.735919 0.000000 0.000000 0.000000 3.501581 -4.946359 -37.902719 -6.733056 0.078010 0.410066 44.201077 43.864301 -62.707662 0.000000 0.000000 0.000000
24.479766 78.821268 287.005395 -2.185941 2.146710 38.351492 0.299683 -1.404639 -38.340046 -0.039475 -0.219326 -0.046801 0.341426 -0.722642 0.835235 0.000000 0.000000 0.000000 1.856250 -2.321995 -0.601660 -0.144620 0.335945 0.750024 -2.746218 23.403788 0.977382 -6.505529 -60.218757 -1.525815 0.000000 0.000000 0.000000 0.000000 0.000000 0.000000 2.680144 -1.295805 -0.334238 -1.561357 0.276381 0.459934 -4.409229 6.983727 -1.833628 11.579029 -7.400499 4.535541 0.000000 0.000000 0.000000 0.000000 0.000000 0.000000 2.570219 -3.520631 -37.889890 -0.629459 -4.379548 0.185434 -0.640186 1.512025 -1.652793 0.000000 0.000000 0.000000 3.936416 -6.808702 -37.793515 -8.742103 0.560402 0.097998 51.958242 45.272722 -71.657656 0.000000 0.000000 0.000000
24.200181 79.152319 285.553069 -2.460923 2.978476 39.052398 0.214557 -1.418739 -39.030415 0.077865 -0.365128 -0.050933 0.509935 -0.715384 1.254994 0.000000 0.000000 0.000000 0.586173 -1.742287 -0.608955 0.737455 0.106033 0.704977 -2.268709 12.035767 1.276314 -6.099075 -49.342624 -7.744189 0.000000 0.000000 0.000000 0.000000 0.000000 0.000000 2.793830 -1.446494 -0.345291 -1.466999 -0.206777 0.500788 -6.258660 7.245389 -2.166050 11.207562 -9.410610 5.583281 0.000000 0.000000 0.000000 0.000000 0.000000 0.000000 2.634053 -4.919816 -38.430460 -1.024393 -5.747681 0.310160 -0.050566 0.944011 -0.285831 0.000000 0.000000 0.000000 4.309606 -9.725045 -37.448872 -11.947622 1.494539 -0.480981 59.660234 46.068479 -79.983446 0.000000 0.000000 0.000000
23.992093 79.598106 284.033032 -2.629263 3.788514 39.702697 0.093176 -1.347835 -39.672330 0.231907 -0.529502 -0.049446 0.655219 -0.532808 1.740496 0.000000 0.000000 0.000000 -0.675077 -1.128846 -0.522987 2.152423 -1.130379 0.624125 -2.151493 7.595979 1.289690 -4.005001 -38.173841 -11.573381 0.000000 0.000000 0.000000 0.000000 0.000000 0.000000 2.543582 -1.382673 -0.309735 -2.648665 -1.355742 1.017054 -7.265325 7.131352 -3.049162 12.431534 -9.672960 6.306634 0.000000 0.000000 0.000000 0.000000 0.000000 0.000000 1.732576 -5.010081 -39.179122 0.058219 -7.517980 0.616087 0.621383 0.133561 -0.006346 0.000000 0.000000 0.000000 4.172073 -12.338433 -36.966095 -14.359019 2.547215 -1.130640 63.943745 46.534139 -84.561474 0.000000 0.000000 0.000000
23.719484 80.013167 282.568548 -2.842106 4.500912 40.154852 0.030700 -1.237163 -40.114541 0.388153 -0.650485 -0.047252 0.817985 -0.262896 2.284994 0.000000 0.000000 0.000000 -1.704771 -0.602658 -0.332090 2.380688 -1.291344 0.238801 -0.324002 2.067000 0.975379 -2.646411 -28.057259 -25.854778 0.000000 0.000000 0.000000 0.000000 0.000000 0.000000 2.001607 -1.130332 -0.216141 -3.194088 -2.370817 1.223363 -9.085745 6.684787 -3.845794 14.075406 -9.186249 6.743307 0.000000 0.000000 0.000000 0.000000 0.000000 0.000000 1.072415 -5.853259 -39.660769 0.374585 -8.588747 0.827366 1.295600 -0.524899 -0.098492 0.000000 0.000000 0.000000 4.016866 -14.785245 -36.266179 -16.338758 3.688011 -1.761415 64.542048 47.553187 -85.629597 0.000000 0.000000 0.000000
23.377971 80.426765 281.350499 -3.134832 5.026850 40.375348 0.063010 -1.159590 -40.319240 0.525619 -0.707308 -0.045308 1.009048 0.055772 2.787103 0.000000 0.000000 0.000000 -2.786747 0.186120 0.009191 2.875438 -1.735251 -0.203038 1.106915 -0.349344 0.709224 -0.775373 -20.458180 -21.858375 0.000000 0.000000 0.000000 0.000000 0.000000 0.000000 1.255609 -0.980245 -0.037542 -3.707917 -3.180563 1.349161 -10.641621 6.375003 -4.688807 16.563255 -8.328143 7.190537 0.000000 0.000000 0.000000 0.000000 0.000000 0.000000 0.716569 -7.407627 -39.842766 -0.105143 -8.451587 0.875995 2.000853 -1.581346 -0.510016 0.000000 0.000000 0.000000 4.011507 -16.862675 -35.451085 -17.704996 4.862006 -2.295812 60.859552 48.588144 -81.891856 0.000000 0.000000 0.000000
22.998409 80.732492 280.555112 -3.440266 5.223101 40.449820 0.153942 -1.104778 -40.378813 0.635213 -0.710871 -0.044640 1.151983 0.704148 3.343169 0.000000 0.000000 0.000000 -3.428707 0.704063 0.198744 3.118276 -1.962853 -0.478224 1.188424 3.496918 0.996617 -2.387345 -29.268786 -10.928163 0.000000 0.000000 0.000000 0.000000 0.000000 0.000000 0.314056 -0.596680 0.186923 -4.000959 -3.923858 1.372007 -12.540885 6.802562 -5.575136 18.160231 -6.982292 7.016149 0.000000 0.000000 0.000000 0.000000 0.000000 0.000000 0.901246 -8.652764 -39.813393 -0.521403 -8.625666 0.944838 2.055890 -1.639977 -1.188089 0.000000 0.000000 0.000000 4.489845 -18.346948 -34.808699 -18.888978 5.667407 -2.558702 60.510898 49.001370 -81.729599 0.000000 0.000000 0.000000
22.634549 80.905736 280.365987 -3.708856 5.092239 40.369004 0.258419 -1.009514 -40.292319 0.658550 -0.597065 -0.052908 1.398970 0.945322 3.552868 0.000000 0.000000 0.000000 -3.469549 0.900972 0.335078 3.001933 -1.950564 -0.690543 1.011488 2.760179 1.482632 -2.282551 -29.812917 -11.627407 0.000000 0.000000 0.000000 0.000000 0.000000 0.000000 -0.547873 -0.392545 0.466648 -4.092450 -4.205773 1.282449 -14.432569 6.638585 -6.343032 21.678827 -6.707079 7.986627 0.000000 0.000000 0.000000 0.000000 0.000000 0.000000 1.549931 -9.952280 -39.546227 -1.560802 -7.924289 0.859118 1.832383 -1.402929 -2.444938 0.000000 0.000000 0.000000 5.367106 -18.987697 -34.481775 -19.747193 5.953859 -2.494508 59.398668 49.504074 -81.089753 0.000000 0.000000 0.000000
